<svg version="1.2" xmlns="http://www.w3.org/2000/svg" viewBox="0 0 1523 1246" width="1523" height="1246">
	<title>SIP</title>
	<defs>
		<clipPath clipPathUnits="userSpaceOnUse" id="cp1">
			<path d="m2839.56-8810.67v14598.54h-10326.44v-14598.54z"/>
		</clipPath>
	</defs>
	<style>
		.s0 { fill: #003363 } 
	</style>
	<g id="Clip-Path: Page 1" clip-path="url(#cp1)">
		<g id="Page 1">
			<path id="Path 9" fill-rule="evenodd" class="s0" d="m119.7 1174.2c3.4 7 4.3 14.8 4.3 23.5-0.9 8.6-4.3 18.2-9.5 26-8.7 11.2-22.6 19.9-37.3 21.6h-9.6c-24.2 0-38.1-10.4-48.5-10.4-7 0-9.6 2.6-9.6 8.7h-9.5v-59.8h3.5c4.3 13 13.8 28.6 23.4 37.3 10.4 9.5 20.8 14.7 34.7 14.7 6.9-0.9 13-2.6 19-6.9 7.8-6.1 12.2-16.5 11.3-26.9-1.7-20-20.8-30.4-35.5-39l-22.6-14.8q-10.4-6-17.3-13c-7-8.6-13.9-18.2-13.9-28.6q0-19.9 13.9-33.8c9.5-9.5 23.4-13.9 38.1-13.9 7 0 19.1 1.8 27.8 5.2 0 0 12.1 5.3 17.3 5.3 6.1 0 10.4-4.4 12.2-10.5h6v58.1h-6.9q-6.1-26-20.8-36.4c-9.6-6.9-23.4-10.4-33-10.4-7.8 0-12.1 1.8-17.3 6.1q-8.7 6.9-8.7 18.2 0 10.4 7 18.2c3.4 5.2 12.1 10.4 20.8 15.6 19.9 12.1 41.6 19.1 55.5 38.1q2.6 3.5 5.2 7.8zm-7.8-845.2q-0.9-5.2 0-10.4c0.8-6 4.3-12.1 8.6-16.5 4.4-4.3 10.4-7.8 16.5-8.6 3.5-0.9 6.1-0.9 8.7-0.9l8.6-0.9q33-1.7 65.1-1.7c22.5-0.9 44.2 0 65.9 0.9 22.5 0.8 44.2 3.4 65.9 7.8 43.3 7.8 85.8 22.5 124.8 42.5 39 19.9 75.4 45 107.5 75.4q20.8 19 39.9 40.7 19.1 21.7 34.7 45.1 15.6 24.7 28.6 49.4c8.7 17.4 16.5 34.7 22.5 52l-5.2 28.6c-15.6-40.7-35.5-78.9-61.5-112.7-27.8-38.1-62.4-71-100.6-97.9-38.1-26.9-80.6-48.6-125.7-61.6-24.3-6.9-49.4-11.2-74.6-13.8q-38.1-3.5-76.3-0.9-38.1 1.7-76.3 5.2-19.1 1.7-37.3 4.3c-3.4 0-6.9 0.9-10.4 0-3.4 0-7.8-0.8-11.2-2.6-7-2.6-12.2-7.8-15.6-14.7v-0.9l-0.9-0.8q0-1.8-0.9-2.6-0.8-2.6-0.8-4.4zm-67.7 196.8c-7.8-7.8-11.2-18.2-9.5-28.6 1.7-10.4 7.8-19.1 17.3-24.3q3.5-1.7 7-2.6l6-1.7 13-3.5q26.9-6 52.9-11.2c35.6-7 71.1-12.2 106.7-14.8 35.5-2.6 71.9-3.5 107.5-2.6 18.2 0.9 35.5 1.8 53.7 5.2q26.1 4.4 52.1 12.2c42.5 13 83.2 34.6 117.9 63.2 33.8 27.8 63.3 62.5 85 100.6 20.8 39 34.6 81.5 39.8 124.8q0 2.6 0.9 6.1 0 4.3 0.9 8.7c0 0 0 8.1 0 8.6l0.8 13q0.9 9.6 0.9 20v195.9h-15.6v-203.7l-0.9-15.6-1.7-14.8q0-5.2-0.9-10.4-0.8-2.6-0.8-5.2c-7-40.7-22.6-80.6-44.3-115.3-21.6-33.8-50.2-65-83.2-88.4-32.1-24.3-70.2-41.6-109.2-51.1q-26-6.1-52.9-7.8-6.1 0-13 0-7 0-13 0c-9.6 0-18.2 0.8-26.9 1.7-35.6 1.7-71.1 6.1-106.7 12.1-34.6 6.1-70.2 13-104 22.6q-13 4.3-26 7.8l-12.2 4.3-6.9 1.7c-1.7 0.9-4.3 1.8-6.9 1.8-10.4 1.7-20.8-1.8-27.8-8.7zm182.1-339.8c-0.9-5.2-0.9-11.3 0.9-16.5 1.7-5.2 5.2-9.5 9.5-13q6.1-5.2 14.7-6.9 4.4 0 7.9 0l6.9 1.7 28.6 4.3c19.1 3.5 37.3 7.8 55.5 13 18.2 5.2 36.4 11.3 54.6 19.1 34.7 13.9 69.4 31.2 100.6 52 32.1 20.8 61.5 45.1 89.3 71.1q14.7 14.8 29.5 30.4 13.8 14.7 26.9 31.2c34.6 43.3 63.2 91 84.1 141.3l-7.8 25.1q-15.7-33.8-35.6-65.9c-13.9-23.4-30.3-45.1-47.7-65.9-25.1-28.6-52.9-55.4-82.4-78-29.4-23.4-61.5-44.2-95.3-60.7q-25.2-13-52-23.4-26.1-10.4-52.9-18.2-27.8-6.9-55.5-12.1c-9.6-1.7-18.2-2.6-27.8-3.5l-28.6-3.4c-5.2-0.9-10.4-3.5-14.7-7.8-4.4-3.5-7-8.7-8.7-13.9zm580.9 47.7q-4.3-6.1-7.8-12.2c7.8-11.2 15.6-23.4 24.3-33.8l24.3-33.8c4.3-5.2 9.5-10.4 13.8-15.6l13.9-15.6c8.7-10.4 18.2-20.8 28.6-30.3l14.8-14.8 15.6-13.8q15.6-13.1 31.2-26.1c6.1-5.2 11.3-8.6 17.3-13l16.5-12.1 8.7-6.1q1.7-1.7 4.3-3.4 3.5-0.9 6.1-1.8c7.8-1.7 16.5 0 22.5 6.1 7 5.2 9.6 13.9 8.7 22.5-1.7 7.8-6.9 14.8-13.9 19.1l-25.1 16.5c-8.7 5.2-17.4 10.4-25.2 16.5-16.4 12.1-32.9 23.4-48.5 37.2q-12.2 9.6-23.4 19.1l-22.6 19.9c-14.7 13.9-28.6 28.7-43.3 42.5q-7 7.8-13 15.6-11.3 13-21.7 26.9zm-455.2-140.4c-2.6-7-1.7-14.8 0.9-21.7 3.4-6.1 9.5-11.3 16.4-13.9 7-1.7 14.8-1.7 20.8 1.8l16.5 7.8q16.5 7.8 33 16.4 32.9 16.5 63.3 37.3 30.3 20.8 58 44.2c19.1 16.5 36.5 33 52.9 51.2 33 32 62.5 67.6 88.5 104.9 25.1 37.2 47.7 77.1 65.9 118.7l-7 13.9q-2.6 4.3-4.3 8.7c-21.7-45.1-47.7-87.6-78-126.6-31.2-41.6-67.7-78.9-106.7-111.8-19.9-14.8-39-28.6-59.8-41.6q-31.2-20-63.3-36.5c-21.7-11.2-43.4-21.6-65.9-30.3l-8.7-3.5c-2.6-0.8-6-1.7-8.6-3.4-7-3.5-12.2-8.7-13.9-15.6zm682.4 13c6.3-3.5 31.7-17.4 38.1-20.8 13-7 25.1-14.8 39-20l9.6-5.2c2.6-0.8 6.9-3.4 11.2-3.4 8.7-1.8 17.4 1.7 24.3 7.8q4.3 4.3 6.1 11.2 0.8 2.6 1.7 6.1 0 3.5-0.9 6.1c-0.8 8.6-6 16.4-13.8 20.8h-0.9l-30.3 13c-10.4 4.3-20.9 7.8-30.4 13q-14.7 6.9-29.5 14.7-7.8 3.5-14.7 7.8l-14.7 8.7c-9.6 5.2-19.1 10.4-27.8 16.5q-14.7 9.5-27.7 18.2c-18.2 13-36.5 26-52.9 40.7-25.2 21.7-48.6 45.9-70.3 71.1l-12.1-24.3q28.6-37.3 62.4-71.1c20-21.6 40.8-40.7 63.3-59.8q33.8-26.9 70.3-51.1zm-568.8-71.1c-3.5-8.7-1.8-18.2 4.3-25.2q3.9-5.2 10.4-7.8c4.3-1.7 8.7-2.6 13-1.7 4.4 0 8.7 2.6 12.2 4.3l9.5 7q17.3 13 35.5 26.8l33.9 27.8c11.2 9.5 21.6 20.8 32 30.3 11.3 10.4 20.8 21.7 31.3 32.1q14.7 16.5 28.6 33.8 27.7 34.7 51.1 72l22.6 33.8c6.9 12.1 13 24.2 19.9 36.4q5.2 8.7 9.5 17.3l8.7 19.1 16.5 35.5-13 20q-3.5-7.8-7-15.6-6-11.3-11.2-21.7l-12.2-20.8q-2.6-5.2-5.2-10.4-3.4-5.2-6.9-10.4l-12.1-20q-7-10.4-13.9-19.9l-13.9-19.1-6.1-9.5q-4.3-3.5-7.8-7.8l-13.8-17.3c-9.6-10.4-19.1-21.7-29.5-32.1l-15.6-15.6c-5.2-6.1-10.4-10.4-15.6-15.6l-16.5-14.8-7.8-7.8q-4.3-3.4-8.7-6.9l-16.4-13.9c-6.1-4.3-11.3-9.5-17.4-13.8l-35.5-26.9-36.5-24.3-4.3-2.6-2.6-1.7q-0.9-0.9-2.6-1.8-5.2-4.3-6.9-11.2zm649.4 149.1q26.9-10.4 54.6-17.4 26.9-7.8 55.5-13 13.9-2.6 27.7-4.3c1.8 0 5.2-0.9 7.8-0.9q4.4 0.9 7.9 1.8c6 1.7 10.4 5.2 13.8 9.5 7.8 8.7 8.7 21.7 4.4 32.1-2.6 4.3-6.1 8.7-11.3 12.1q-3.5 2.6-6.9 3.5c-2.6 0.9-6.1 0.9-8.7 1.7q-27.8 1.8-55.5 7-26.9 5.2-54.6 13c-17.4 4.3-35.6 11.2-52.9 17.3-34.7 13.9-68.5 31.2-99.7 51.1-31.2 20.9-61.6 43.4-88.5 69.4-14.7 14.7-28.6 31.2-44.2 50.3l-15.6 19.9-13.9 20.8-8.6 13.9c-41.7 65.9-68.5 141.3-79.8 219.3q-4.3 43.4-4.3 87.6v215.8h-14.8c0-6.9 0-236.9 0-244.4 0-5.2 0-20.8 0-26q0.9-15.6 2.6-32.1v-0.9c7.8-81.5 32.1-162.1 72.9-233.2l8.6-14.7 13.9-22.6 14.7-21.6c13-18.2 27.8-37.3 45.1-54.6 24.3-28.6 52-53.8 82.4-77.2 29.5-23.4 61.6-43.3 95.4-59.8q26-13 52-23.4zm299.1 557.4c-32.1-24.3-66.7-45.1-103.2-62.4-72.8-35.6-152.6-53.8-234.1-59-6.9 0-13-0.8-19.9 0l-6.9 0.9q-1.8 0-4.4 0-4.3 0.9-8.6 1.7c-16.5 2.6-33.9 8.7-52.1 17.4q-23.4 12.1-44.2 31.2-20.8 19.9-34.7 43.3c-10.4 17.4-17.3 34.7-21.6 51.2q-0.9 4.3-1.8 9.5v0.9q-3.4 21.6-3.4 43.3v175.1h-15.7c0-1.7 0-208 0-209.8l1.8-6.9q0-3.5 0-6.1 0.8-5.2 1.7-9.5c3.5-19.1 10.4-38.1 20-58.1 9.5-18.2 21.6-35.5 35.5-51.1 14.7-14.8 31.2-27.8 49.4-38.2q29.5-16.4 58.1-24.2 5.2-0.9 10.4-1.8 2.6-0.8 5.2-0.8l7.8-1.8c80.7-8.6 163.9 0.9 241.9 25.2 39 12.1 77.2 27.7 112.7 47.6q26.9 14.8 52.9 31.3 13 8.6 25.2 18.2l6 4.3c1.8 1.7 4.4 3.5 6.1 5.2 4.4 4.3 7 10.4 8.7 15.6 3.5 12.1 0 25.1-8.7 33.8-8.7 8.7-20.8 13-32.9 10.4q-9.1-1.3-15.6-7.8l-12.2-9.5q-11.2-9.6-23.4-19.1zm-532.3-111c-22.6 34.7-37.3 74.6-44.3 114.5q-0.8 2.6-0.8 6-0.9 3.5-0.9 7.8l-0.9 7q-1.7 14.7-1.7 30.3v198.5h-15.6v-201.1l0.9-13.9v-4.3l0.8-16.5q0-5.2 0.9-10.4 0-2.6 0-6c5.2-43.4 19.1-85.9 40.7-124 20.9-39 50.3-73.7 85-101.4 33.8-27.8 74.6-49.4 117.1-62.4q26-8.7 52.9-13c17.3-3.5 35.5-4.4 52.8-5.2 36.5-0.9 72 0 107.6 2.6 36.4 2.6 71.9 7.8 106.6 14.7q26.9 5.2 52.9 11.3l13 3.4 6.9 1.8q3.5 0.8 7 2.6c9.5 5.2 15.6 13.8 17.3 24.2 1.7 10.4-1.7 21.7-9.5 28.6-7 7.8-18.2 11.3-28.6 9.6-1.8-0.9-5.2-0.9-7-1.8l-6-2.6-13.1-3.4q-13-4.4-25.1-7.8c-34.7-9.6-69.4-17.4-104.9-23.4-34.7-6.1-70.2-10.4-105.8-12.2-8.7 0-18.2-0.8-26.9-1.7q-6.9 0-13 0-6.9 0-13.8 0.9-26.9 0.8-52.9 6.9c-39 9.5-76.3 26.9-109.3 51.1-32.9 23.5-61.5 54.7-82.3 89.3zm13-135.2c-57.3 65-94.5 149.1-105 235.8q-0.8 6.1-0.8 11.3v2.6q-1.8 13.8-1.8 26.8v225.4h-14.7v-237.5q0-14.7 0.9-30.3 3.9-36.4 10.4-67.7c6-24.2 12.1-45.9 19.9-65.8 9.6-22.6 19.1-43.4 30.4-61.6 11.2-20.8 24.2-39.9 38.1-58.1 29.5-38.1 65-71.9 104.1-100.5 39.8-27.8 84.9-49.4 130.9-63.3q17.3-5.2 35.5-9.5c12.2-2.7 23.4-5.3 35.6-7q36.4-5.2 72.8-5.2 36.4-0.9 72.8 0 18.3 0.9 36.5 1.7l9.5 0.9c2.6 0 6.1 0 9.5 0.9 7 1.7 13 6 16.5 12.1 4.3 5.2 6.9 13 6.1 20 0 6.9-2.6 13.8-7.8 19-4.4 5.2-11.3 8.7-18.2 9.6-2.6 0.8-7 0.8-9.6 0l-9.5-0.9q-35.6-4.3-72-6.1-18.2-1.7-36.4-1.7-17.3-0.9-35.5-0.9-18.2 0.9-36.5 2.6-17.3 1.8-35.5 5.2c-46.8 9.6-92.8 26.9-134.4 51.2-41.6 23.4-79.8 54.6-111.8 90.1q0 0 0 0.9zm259.2 700.5h6.9l-12.1 45.9h-150.9v-5.2c9.6-0.9 13.9-2.6 17.4-5.2q4.3-3.5 4.3-19.1v-119.6q0-14.7-4.3-19.1c-2.6-2.6-7.8-4.3-17.4-5.2v-5.2h147.4l0.9 39h-6.9c-1.8-12.1-7-18.2-11.3-21.6-5.2-3.5-18.2-5.2-33.8-5.2h-32.1c-5.2 0-8.7 4.3-8.7 8.6v55.5c0 1.7 1.8 3.5 3.5 3.5h33.8q18.2 0 23.4-5.2c2.6-3.5 7-10.4 8.7-20.8h6.9v63.2h-6.9c-1.7-10.4-6.9-16.4-12.1-20.8-4.4-2.6-9.6-5.2-20.9-5.2h-32.9c-1.7 0-3.5 1.8-3.5 3.5v62.4c0 6.1 6.1 9.6 9.6 10.4 3.4 0.9 9.5 0.9 26.8 0.9 18.3 0 29.5-1.7 39.1-6.1 8.6-4.3 18.2-13.8 25.1-29.4zm368.5-93.7h-7.8c-4.3-13-7.8-18.2-13-21.6-5.2-2.6-12.2-6.1-27.8-6.1h-36.4q-6 0-6.9 2.6-1.7 1.7-1.7 6.9v59h37.2q17.4 0 21.7-5.2c3.5-3.5 7.8-10.4 9.6-20.8h6.9v63.2h-6.9c-1.8-10.4-7-16.4-12.2-20.8-4.3-2.6-9.5-5.2-20.8-5.2h-35.5v58.1q0 14.8 4.3 19.1 4.3 4.3 19.9 5.2v5.2h-84.1v-5.2q15.6-1.7 20-5.2 3.4-4.3 3.4-21.7v-117q0-14.7-4.3-19.1-4.3-4.3-19.1-5.2v-5.2h152.6zm-887-106.6v-187.3l-1.7-13.8q0-1.8 0-2.6 0-2.6 0-5.2l-1.7-7q-0.9-1.7-0.9-4.3-0.9-4.3-1.7-8.7c-4.4-17.3-11.3-33.8-21.7-52q-13.9-23.4-34.7-43.3-20.8-19.1-44.2-31.2c-18.2-8.7-35.5-13.9-51.2-17.4q-5.2-0.8-9.5-0.8-1.7 0-4.3-0.9l-7-0.9q0 0-0.8 0-9.6 0-19.1 0c-80.6 4.4-161.3 23.4-234.1 59-36.4 17.3-71.1 38.1-103.2 62.4q-12.1 8.7-24.3 18.2l-11.2 10.4c-4.4 3.5-10.4 6.1-15.6 6.9-11.3 2.6-23.4-1.7-32.1-10.4-7.8-7.8-11.3-20.8-7.8-32 0.8-5.2 3.4-10.4 7.8-14.8 1.7-2.6 4.3-4.3 6.1-6.1l6-4.3q12.2-8.7 25.2-17.3 26-17.4 52.9-32.1c35.5-19.1 73.7-35.5 112.7-47.7 68.5-21.7 141.3-31.2 213.3-27.7h4.3l15.6 1.7q1.7 0 3.5 0 1.7 0 4.3 0l7.8 1.7q2.6 0.9 6.1 0.9 5.2 0.9 9.5 2.6c19.1 4.4 39 12.2 59 23.4 17.3 10.4 33.8 23.4 48.5 39 14.8 15.6 26.9 32.1 35.6 50.3q14.7 30.4 19.9 59 1.8 4.3 1.8 9.5 0 2.6 0.8 5.2l0.9 7.8q0 1.7 0 4.3 0 1.8 0 2.6l0.9 15.6v187.3zm-296.6 67.6h88.5v5.2q-16.5 0.9-21.7 5.2-4.3 4.3-4.3 19.1v120.5q0 15.6 4.3 19.1 5.2 3.4 21.7 5.2v5.2h-88.5v-5.2q16.5-1.8 20.8-5.2 5.2-3.5 5.2-19.1v-120.5q0-14.8-5.2-19.1-4.3-4.3-20.8-5.2zm450 48.6c0 18.2-6 36.4-19.9 44.2-13 8.6-26 12.1-46 12.1-3.4 0-11.2 0-15.6 0q-6.9 0-10.4 0v45.1q0 14.7 5.2 19.1 4.4 3.4 20.8 5.2v4.3h-84.1v-4.3q14.8-1.8 19.1-6.1 3.5-5.2 3.5-21.7v-117q0-13.9-4.4-19.1-4.3-4.3-18.2-5.2v-5.2h84.1c22.6 0 35.6 4.3 47.7 13q18.2 13.9 18.2 35.6zm-33.8 0.8q0-25.1-20.8-34.7c-7.8-2.6-13-4.3-25.1-4.3q-7.9 0-9.6 1.7-2.6 0.9-2.6 7v70.2q7.8 0.9 9.6 0.9 2.6 0 4.3 0c13 0 18.2-1.8 25.1-5.2q19.1-9.6 19.1-35.6zm280.9-1063.7zm-599.1 571.3zm639.9 0z"/>
		</g>
	</g>
</svg>